<?xml version="1.0" standalone="no"?>
<!DOCTYPE svg PUBLIC "-//W3C//DTD SVG 20010904//EN"
 "http://www.w3.org/TR/2001/REC-SVG-20010904/DTD/svg10.dtd">
<svg version="1.0" xmlns="http://www.w3.org/2000/svg"
 width="500.000000pt" height="500.000000pt" viewBox="0 0 500.000000 500.000000"
 preserveAspectRatio="xMidYMid meet">
<metadata>
Created by potrace 1.14, written by Peter Selinger 2001-2017
</metadata>
<g transform="translate(0.000000,500.000000) scale(0.100000,-0.100000)"
fill="#000000" stroke="none">
<path d="M2315 4994 c-16 -2 -73 -9 -125 -15 -210 -24 -448 -87 -657 -175
-685 -286 -1211 -871 -1426 -1584 -74 -245 -102 -440 -102 -720 0 -280 28
-475 102 -720 242 -802 871 -1431 1673 -1673 245 -74 440 -102 720 -102 280 0
475 28 720 102 802 242 1431 871 1673 1673 74 245 102 440 102 720 0 280 -28
475 -102 720 -169 560 -530 1045 -1018 1366 -319 210 -659 337 -1055 394 -77
11 -451 22 -505 14z m386 -504 c574 -56 1118 -379 1448 -859 28 -41 51 -78 51
-82 0 -9 -155 -99 -170 -99 -5 0 -10 4 -10 9 0 22 -158 219 -248 309 -270 270
-619 451 -977 506 -590 91 -1147 -88 -1564 -503 -500 -497 -660 -1222 -419
-1891 179 -498 594 -904 1101 -1079 381 -131 785 -131 1172 1 264 90 485 228
687 430 90 90 248 287 248 309 0 5 5 9 10 9 15 0 170 -90 170 -99 0 -4 -23
-41 -51 -82 -198 -287 -473 -521 -794 -675 -895 -429 -1977 -125 -2528 711
-384 583 -432 1342 -123 1970 111 225 230 390 408 560 431 415 998 613 1589
555z m-1071 -1340 l0 -90 -240 0 -240 0 0 90 0 90 240 0 240 0 0 -90z m2220 0
l0 -90 -1010 0 -1010 0 0 90 0 90 1010 0 1010 0 0 -90z m-2220 -650 l0 -90
-240 0 -240 0 0 90 0 90 240 0 240 0 0 -90z m2570 0 l0 -90 -1185 0 -1185 0 0
90 0 90 1185 0 1185 0 0 -90z m-2570 -650 l0 -90 -240 0 -240 0 0 90 0 90 240
0 240 0 0 -90z m1378 3 l-3 -88 -587 -3 -588 -2 0 90 0 90 590 0 591 0 -3 -87z"/>
</g>
</svg>
